<?xml version="1.0" encoding="UTF-8" standalone="no"?>
<!DOCTYPE svg PUBLIC "-//W3C//DTD SVG 1.1//EN" "http://www.w3.org/Graphics/SVG/1.1/DTD/svg11.dtd">
<svg width="100%" height="100%" viewBox="0 0 931 950" version="1.1" xmlns="http://www.w3.org/2000/svg" xmlns:xlink="http://www.w3.org/1999/xlink" xml:space="preserve" xmlns:serif="http://www.serif.com/" style="fill-rule:evenodd;clip-rule:evenodd;stroke-linecap:round;stroke-linejoin:round;stroke-miterlimit:1.5;">
    <g transform="matrix(1,0,0,1,-1040.76,-1013.63)">
        <g transform="matrix(0.803916,0,0,0.803916,321.535,246.934)">
            <circle cx="1462" cy="1475" r="458" style="fill:rgb(250,223,161);"/>
            <g>
                <clipPath id="_clip1">
                    <circle cx="1462" cy="1475" r="458"/>
                </clipPath>
                <g clip-path="url(#_clip1)">
                    <g transform="matrix(1.24391,-2.07153e-16,2.07153e-16,1.24391,-399.96,-307.164)">
                        <path d="M1252,1682.3C1378.39,1783.87 1539.51,1805.75 1605,1762" style="fill:none;stroke:rgb(254,242,245);stroke-width:3.64px;"/>
                    </g>
                    <g transform="matrix(1.31065,0,0,1.39982,-1123.04,-465.737)">
                        <g transform="matrix(0,-1.50607,-1.50607,0,2003.69,1275.17)">
                            <path d="M-28.094,-28.094C-43.61,-28.094 -56.188,-15.516 -56.188,0C-56.188,15.516 -43.61,28.094 -28.094,28.094C-25.745,28.094 -23.463,27.806 -21.282,27.262C-9.058,24.218 0,13.167 0,0C0,-15.516 -12.578,-28.094 -28.094,-28.094" style="fill:rgb(247,198,91);fill-rule:nonzero;"/>
                        </g>
                        <g transform="matrix(0.62225,-1.37151,-1.37151,-0.62225,2048.99,1280.64)">
                            <ellipse cx="-36.397" cy="16.513" rx="9.578" ry="39.968" style="fill:none;stroke:rgb(247,198,91);stroke-width:2.23px;stroke-linecap:butt;stroke-linejoin:miter;stroke-miterlimit:10;"/>
                        </g>
                    </g>
                    <g id="lampada" transform="matrix(1.02942,0,0,0.975645,-367.738,101.011)">
                        <g transform="matrix(-2.06836,1.86477,1.86477,2.06836,1937.81,1071.19)">
                            <path d="M15.458,-5.652C4.79,-15.12 -6.068,-3.199 2.364,6.154L15.458,13.047L21.124,7.94L15.458,-5.652Z" style="fill:rgb(247,198,91);fill-rule:nonzero;stroke:rgb(247,198,91);stroke-width:0.46px;stroke-linecap:butt;stroke-miterlimit:2;"/>
                        </g>
                        <g transform="matrix(2.78486,0,0,2.78486,1909.33,1131.06)">
                            <path d="M0,0L7.663,0" style="fill:none;fill-rule:nonzero;stroke:rgb(247,198,91);stroke-width:1.86px;stroke-linecap:butt;stroke-linejoin:miter;stroke-miterlimit:10;"/>
                        </g>
                        <g transform="matrix(2.78486,0,0,2.78486,1909.18,1135.95)">
                            <path d="M0,0L7.664,0" style="fill:none;fill-rule:nonzero;stroke:rgb(247,198,91);stroke-width:1.86px;stroke-linecap:butt;stroke-linejoin:miter;stroke-miterlimit:10;"/>
                        </g>
                        <g transform="matrix(2.78486,0,0,2.78486,1909.18,1140.53)">
                            <path d="M0,0L7.664,0" style="fill:none;fill-rule:nonzero;stroke:rgb(247,198,91);stroke-width:1.86px;stroke-linecap:butt;stroke-linejoin:miter;stroke-miterlimit:10;"/>
                        </g>
                        <g transform="matrix(2.78486,0,0,2.78486,1914.96,1145.11)">
                            <path d="M0,0L3.562,0" style="fill:none;fill-rule:nonzero;stroke:rgb(247,198,91);stroke-width:1.86px;stroke-linecap:butt;stroke-linejoin:miter;stroke-miterlimit:10;"/>
                        </g>
                        <g transform="matrix(2.53004,-1.16376,-1.16376,-2.53004,1883.09,1101.03)">
                            <path d="M-0.181,0.828L3.779,0.827" style="fill:none;fill-rule:nonzero;stroke:rgb(247,198,91);stroke-width:1.89px;stroke-linecap:butt;stroke-linejoin:miter;stroke-miterlimit:10;"/>
                        </g>
                        <g transform="matrix(2.78486,0,0,2.78486,1876.28,1082.92)">
                            <path d="M0,0L4.669,0" style="fill:none;fill-rule:nonzero;stroke:rgb(247,198,91);stroke-width:1.86px;stroke-linecap:butt;stroke-linejoin:miter;stroke-miterlimit:10;"/>
                        </g>
                        <g transform="matrix(2.50897,1.20852,1.20852,-2.50897,1884,1066.56)">
                            <path d="M-0.156,-0.684L2.994,-0.684" style="fill:none;fill-rule:nonzero;stroke:rgb(247,198,91);stroke-width:1.82px;stroke-linecap:butt;stroke-linejoin:miter;stroke-miterlimit:10;"/>
                        </g>
                        <g transform="matrix(1.99121,1.94693,1.94693,-1.99121,1893.65,1051.16)">
                            <path d="M-0.645,-1.583L3.883,-1.583" style="fill:none;fill-rule:nonzero;stroke:rgb(247,198,91);stroke-width:1.81px;stroke-linecap:butt;stroke-linejoin:miter;stroke-miterlimit:10;"/>
                        </g>
                        <g transform="matrix(1.08916,2.56304,2.56304,-1.08916,1909.44,1047.32)">
                            <path d="M-0.952,-1.439L2.175,-1.439" style="fill:none;fill-rule:nonzero;stroke:rgb(247,198,91);stroke-width:1.82px;stroke-linecap:butt;stroke-linejoin:miter;stroke-miterlimit:10;"/>
                        </g>
                        <g transform="matrix(-0.200034,2.77767,2.77767,0.200034,1927.03,1047.4)">
                            <path d="M-2.552,-2.375L2.21,-2.375" style="fill:none;fill-rule:nonzero;stroke:rgb(247,198,91);stroke-width:1.86px;stroke-linecap:butt;stroke-linejoin:miter;stroke-miterlimit:10;"/>
                        </g>
                        <g transform="matrix(-1.22361,2.50164,2.50164,1.22361,1936.07,1055.11)">
                            <path d="M-2.652,-1.655L1.033,-1.655" style="fill:none;fill-rule:nonzero;stroke:rgb(247,198,91);stroke-width:1.9px;stroke-linecap:butt;stroke-linejoin:miter;stroke-miterlimit:10;"/>
                        </g>
                        <g transform="matrix(-1.99121,1.94693,1.94693,1.99121,1947.56,1063.77)">
                            <path d="M-3.883,-1.583L0.645,-1.583" style="fill:none;fill-rule:nonzero;stroke:rgb(247,198,91);stroke-width:1.91px;stroke-linecap:butt;stroke-linejoin:miter;stroke-miterlimit:10;"/>
                        </g>
                        <g transform="matrix(-2.6227,0.936431,0.936431,2.6227,1949.96,1073.22)">
                            <path d="M-3.115,-0.54L0.093,-0.54" style="fill:none;fill-rule:nonzero;stroke:rgb(247,198,91);stroke-width:1.89px;stroke-linecap:butt;stroke-linejoin:miter;stroke-miterlimit:10;"/>
                        </g>
                        <g transform="matrix(-2.78486,0,0,2.78486,1952.21,1083.92)">
                            <path d="M-4.821,0L0,0" style="fill:none;fill-rule:nonzero;stroke:rgb(247,198,91);stroke-width:1.86px;stroke-linecap:butt;stroke-linejoin:miter;stroke-miterlimit:10;"/>
                        </g>
                        <g transform="matrix(-2.68587,-0.735904,-0.735904,2.68587,1949.66,1095.77)">
                            <path d="M-3.078,0.414L0.056,0.414" style="fill:none;fill-rule:nonzero;stroke:rgb(247,198,91);stroke-width:1.83px;stroke-linecap:butt;stroke-linejoin:miter;stroke-miterlimit:10;"/>
                        </g>
                    </g>
                </g>
            </g>
        </g>
        <g transform="matrix(-0.204471,1.81865,1.81865,0.204471,1225.12,1213.6)">
            <path d="M7.995,-38.031C-4.267,-29.407 -4.655,-21.634 6.339,-14.678C3.709,-11.274 1.687,-7.915 0.956,-4.653C-0.105,0.077 1.547,4.604 7.995,8.771C18.386,12.87 32.341,0.894 48.408,-20.61C35.798,-33.032 22.976,-43.824 7.995,-38.031" style="fill:rgb(247,198,91);fill-rule:nonzero;"/>
        </g>
        <g transform="matrix(0.583333,0,0,0.583333,548.333,497.917)">
            <path d="M1334,1195L1338.86,1208.14L1352,1213L1338.86,1217.86L1334,1231L1329.14,1217.86L1316,1213L1329.14,1208.14L1334,1195Z" style="fill:rgb(247,198,91);"/>
        </g>
        <g transform="matrix(0.777778,0,0,0.750958,379.444,460.516)">
            <path d="M1334,1195L1338.86,1208.14L1352,1213L1338.86,1217.86L1334,1231L1329.14,1217.86L1316,1213L1329.14,1208.14L1334,1195Z" style="fill:rgb(247,198,91);"/>
        </g>
        <g transform="matrix(0.777778,0,0,0.750958,227.025,561.605)">
            <path d="M1334,1195L1338.86,1208.14L1352,1213L1338.86,1217.86L1334,1231L1329.14,1217.86L1316,1213L1329.14,1208.14L1334,1195Z" style="fill:rgb(247,198,91);"/>
        </g>
        <g transform="matrix(0.388889,0,0,0.375479,971.083,1259.69)">
            <path d="M1334,1195L1338.86,1208.14L1352,1213L1338.86,1217.86L1334,1231L1329.14,1217.86L1316,1213L1329.14,1208.14L1334,1195Z" style="fill:rgb(247,198,91);"/>
        </g>
        <g transform="matrix(2.78486,0,0,2.78486,1730.04,1953.27)">
            <path d="M0,-94.068L-1.635,-78.353C-52.433,-69.417 -90.243,-45.084 -118.476,-13.821C-119.158,-12.026 -119.158,-10.043 -118.476,-8.248C-111.277,-5.293 -103.592,-2.558 -95.516,0L7.913,0L7.913,-23.74C56.517,-34.065 54.485,-47.967 57.288,-60.966L56.507,-94.068L0,-94.068Z" style="fill:rgb(81,82,85);fill-rule:nonzero;"/>
        </g>
        <g transform="matrix(2.78486,0,0,2.78486,1748.97,1863.21)">
            <path d="M0,32.005L0,8.6L4.922,8.6L6.857,3.974L8.313,2.372C10.016,0.498 12.573,-0.334 15.042,0.185C17.56,0.606 20.044,1.362 22.507,2.302C29.115,7.332 35.529,12.345 41.733,14.99C46.787,15.474 57.052,18.717 67.135,21.863C71.508,23.849 75.646,25.854 79.522,27.881C80.501,29.342 79.871,31.34 78.236,31.965L77.254,32.339L62.213,32.339L0,32.005Z" style="fill:rgb(231,231,231);fill-rule:nonzero;"/>
        </g>
        <g transform="matrix(2.78486,0,0,2.78486,1120.6,1630.36)">
            <path d="M0,-2.226L0,0L9.259,0L10.549,-2.226" style="fill:rgb(243,174,21);fill-rule:nonzero;"/>
        </g>
        <g transform="matrix(2.78486,0,0,2.78486,1232.41,1630.36)">
            <path d="M0,-2.226L0,0L-9.259,0L-10.549,-2.226" style="fill:rgb(243,174,21);fill-rule:nonzero;"/>
        </g>
        <g transform="matrix(2.78486,0,0,2.78486,1118.61,1573.82)">
            <path d="M0,18.08L41.42,18.08C50.575,10.266 51.67,4.24 44.704,0L-3.284,0C-11.279,5.144 -8.185,11.365 0,18.08" style="fill:rgb(243,174,21);fill-rule:nonzero;"/>
        </g>
        <g transform="matrix(2.78486,0,0,2.78486,1240.19,1571.89)">
            <path d="M0,-3.845L-45.979,-3.845C-48.307,-2.563 -48.307,-1.281 -45.979,0L0,0C2.445,-1.281 2.445,-2.563 0,-3.845" style="fill:rgb(243,174,21);fill-rule:nonzero;"/>
        </g>
        <path d="M1199.67,1562.23L1151.77,1562.23L1159.45,1551.01L1162.16,1531.26L1158.94,1524.2L1158.62,1517.65L1151.77,1470.05L1154.88,1468.7L1159.66,1476.91C1161.4,1477.33 1162.96,1477.33 1164.34,1476.91L1168.5,1473.07L1169.64,1458.31L1171.51,1458.31L1171.51,1473.07L1174.79,1473.37L1174.79,1475.38L1164.96,1480.03L1164.75,1491.88L1170.57,1499.46C1171.65,1500.7 1173.4,1500.99 1174.79,1500.29C1175.1,1500.14 1175.39,1499.93 1175.65,1499.68L1175.87,1499.46L1183.77,1489.38L1189.07,1455.51L1192.4,1455.51L1191.98,1474.73L1191.78,1487L1182.84,1505.6L1182.84,1515.47L1188.55,1522.95L1190.94,1544.98L1199.67,1562.23Z" style="fill:rgb(243,174,21);"/>
        <path d="M1174.79,1473.37L1174.94,1473.38L1182.21,1469.64L1182.21,1462.57L1184.81,1462.26L1184.29,1470.89L1174.79,1475.38L1174.79,1473.37Z" style="fill:rgb(228,225,226);"/>
        <g transform="matrix(2.78486,0,0,2.78486,1168.6,1394.65)">
            <path d="M0,23.04C-4.342,28.584 -11.091,28.416 -18.614,26.409C-27.454,21.871 -18.653,7.797 -12.219,9.793L-10.92,3.88C-9.209,-3.909 1.174,-5.544 5.196,1.342L6.967,0.908C13.217,-0.623 17.987,6.462 14.218,11.677C17.404,13.014 18.4,17.046 16.202,19.713L14.732,21.498L7.48,24.981L0,23.04Z" style="fill:rgb(237,138,2);fill-rule:nonzero;"/>
        </g>
        <g transform="matrix(2.78486,0,0,2.78486,1148.15,1446.19)">
            <path d="M0,-4.534C-0.398,-5.064 -1.178,-5.179 -1.927,-4.888C-2.082,-5.402 -2.416,-5.799 -2.882,-5.924C-3.705,-6.143 -4.605,-5.444 -4.894,-4.362C-4.951,-4.149 -4.973,-3.938 -4.976,-3.732C-5.1,-3.75 -5.228,-3.761 -5.359,-3.761C-6.479,-3.761 -7.386,-3.071 -7.386,-2.22C-7.386,-1.47 -6.681,-0.847 -5.747,-0.709C-6.002,-0.017 -5.902,0.696 -5.424,1.092C-4.799,1.609 -3.766,1.391 -3.052,0.624C-2.507,0.6 -1.913,0.299 -1.47,-0.236C-1.031,-0.768 -0.846,-1.403 -0.92,-1.94C-0.845,-1.986 -0.768,-2.029 -0.695,-2.084C0.2,-2.757 0.511,-3.854 0,-4.534" style="fill:rgb(244,153,156);fill-rule:nonzero;"/>
        </g>
        <g transform="matrix(2.78486,0,0,2.78486,1150.5,1421.5)">
            <path d="M0,-4.788C-0.421,-5.348 -1.244,-5.469 -2.035,-5.162C-2.199,-5.705 -2.552,-6.124 -3.044,-6.256C-3.912,-6.487 -4.863,-5.749 -5.168,-4.607C-5.229,-4.381 -5.251,-4.158 -5.255,-3.941C-5.386,-3.96 -5.52,-3.972 -5.659,-3.972C-6.841,-3.972 -7.8,-3.244 -7.8,-2.345C-7.8,-1.553 -7.055,-0.894 -6.068,-0.749C-6.338,-0.018 -6.233,0.735 -5.728,1.153C-5.068,1.699 -3.977,1.469 -3.223,0.659C-2.648,0.634 -2.02,0.315 -1.552,-0.25C-1.088,-0.811 -0.893,-1.482 -0.972,-2.049C-0.892,-2.097 -0.811,-2.143 -0.734,-2.201C0.211,-2.911 0.54,-4.069 0,-4.788" style="fill:rgb(244,153,156);fill-rule:nonzero;"/>
        </g>
        <g transform="matrix(2.78486,0,0,2.78486,1165.95,1402.89)">
            <path d="M0,-4.788C-0.421,-5.348 -1.244,-5.469 -2.035,-5.162C-2.199,-5.705 -2.552,-6.124 -3.044,-6.256C-3.912,-6.487 -4.863,-5.749 -5.168,-4.607C-5.229,-4.381 -5.251,-4.158 -5.255,-3.941C-5.386,-3.96 -5.52,-3.972 -5.659,-3.972C-6.841,-3.972 -7.8,-3.243 -7.8,-2.345C-7.8,-1.553 -7.055,-0.894 -6.068,-0.749C-6.338,-0.018 -6.233,0.735 -5.728,1.153C-5.068,1.699 -3.977,1.469 -3.223,0.659C-2.648,0.634 -2.02,0.315 -1.552,-0.25C-1.088,-0.811 -0.893,-1.482 -0.972,-2.049C-0.892,-2.097 -0.811,-2.143 -0.734,-2.201C0.211,-2.911 0.54,-4.069 0,-4.788" style="fill:rgb(244,153,156);fill-rule:nonzero;"/>
        </g>
        <g transform="matrix(2.78486,0,0,2.78486,1194.53,1413.84)">
            <path d="M0,-4.534C-0.398,-5.064 -1.178,-5.179 -1.927,-4.888C-2.082,-5.402 -2.416,-5.799 -2.882,-5.924C-3.705,-6.143 -4.605,-5.444 -4.894,-4.362C-4.952,-4.149 -4.973,-3.938 -4.976,-3.732C-5.1,-3.75 -5.228,-3.761 -5.359,-3.761C-6.479,-3.761 -7.387,-3.071 -7.387,-2.22C-7.387,-1.47 -6.681,-0.847 -5.747,-0.709C-6.002,-0.017 -5.902,0.696 -5.424,1.092C-4.799,1.609 -3.766,1.391 -3.052,0.624C-2.508,0.6 -1.913,0.299 -1.47,-0.236C-1.031,-0.768 -0.846,-1.403 -0.92,-1.94C-0.845,-1.986 -0.768,-2.029 -0.695,-2.084C0.2,-2.757 0.511,-3.854 0,-4.534" style="fill:rgb(244,153,156);fill-rule:nonzero;"/>
        </g>
        <g transform="matrix(2.78486,0,0,2.78486,1196.43,1435.98)">
            <path d="M0,-4.534C-0.398,-5.064 -1.178,-5.179 -1.927,-4.888C-2.082,-5.402 -2.416,-5.799 -2.882,-5.924C-3.705,-6.143 -4.605,-5.444 -4.894,-4.362C-4.951,-4.149 -4.973,-3.938 -4.976,-3.732C-5.1,-3.75 -5.228,-3.761 -5.359,-3.761C-6.479,-3.761 -7.386,-3.071 -7.386,-2.22C-7.386,-1.47 -6.681,-0.847 -5.747,-0.709C-6.002,-0.017 -5.902,0.696 -5.424,1.092C-4.799,1.609 -3.766,1.391 -3.052,0.624C-2.507,0.6 -1.913,0.299 -1.47,-0.236C-1.031,-0.768 -0.846,-1.403 -0.92,-1.94C-0.845,-1.986 -0.768,-2.029 -0.695,-2.084C0.2,-2.757 0.511,-3.854 0,-4.534" style="fill:rgb(244,153,156);fill-rule:nonzero;"/>
        </g>
        <g transform="matrix(2.78486,0,0,2.78486,1208.29,1458.11)">
            <path d="M0,-4.534C-0.398,-5.064 -1.178,-5.179 -1.927,-4.888C-2.082,-5.402 -2.416,-5.799 -2.882,-5.924C-3.705,-6.143 -4.605,-5.444 -4.894,-4.362C-4.952,-4.148 -4.973,-3.938 -4.976,-3.732C-5.1,-3.75 -5.228,-3.761 -5.359,-3.761C-6.479,-3.761 -7.387,-3.071 -7.387,-2.22C-7.387,-1.47 -6.681,-0.847 -5.747,-0.709C-6.002,-0.017 -5.902,0.696 -5.424,1.092C-4.799,1.609 -3.766,1.391 -3.052,0.624C-2.508,0.6 -1.913,0.299 -1.47,-0.236C-1.031,-0.768 -0.846,-1.403 -0.92,-1.94C-0.845,-1.986 -0.768,-2.029 -0.695,-2.084C0.2,-2.757 0.511,-3.854 0,-4.534" style="fill:rgb(244,153,156);fill-rule:nonzero;"/>
        </g>
        <g transform="matrix(2.78486,0,0,2.78486,1165.42,1466.03)">
            <path d="M0,-4.534C-0.398,-5.064 -1.178,-5.179 -1.927,-4.888C-2.082,-5.402 -2.416,-5.799 -2.882,-5.924C-3.705,-6.143 -4.605,-5.444 -4.894,-4.362C-4.951,-4.149 -4.973,-3.938 -4.976,-3.732C-5.1,-3.75 -5.228,-3.761 -5.359,-3.761C-6.479,-3.761 -7.386,-3.071 -7.386,-2.22C-7.386,-1.47 -6.681,-0.847 -5.747,-0.709C-6.002,-0.017 -5.902,0.696 -5.424,1.092C-4.799,1.609 -3.766,1.391 -3.052,0.624C-2.507,0.6 -1.913,0.299 -1.47,-0.236C-1.031,-0.768 -0.846,-1.403 -0.92,-1.94C-0.845,-1.986 -0.768,-2.029 -0.695,-2.084C0.2,-2.757 0.511,-3.854 0,-4.534" style="fill:rgb(244,153,156);fill-rule:nonzero;"/>
        </g>
        <g transform="matrix(2.78486,0,0,2.78486,1123.52,1464.29)">
            <path d="M0,-4.534C-0.398,-5.064 -1.178,-5.179 -1.927,-4.888C-2.082,-5.402 -2.416,-5.799 -2.882,-5.924C-3.705,-6.143 -4.605,-5.444 -4.894,-4.362C-4.951,-4.148 -4.973,-3.938 -4.976,-3.732C-5.1,-3.75 -5.228,-3.761 -5.359,-3.761C-6.479,-3.761 -7.386,-3.071 -7.386,-2.22C-7.386,-1.47 -6.681,-0.847 -5.747,-0.709C-6.002,-0.017 -5.902,0.696 -5.424,1.092C-4.799,1.609 -3.766,1.391 -3.052,0.624C-2.507,0.6 -1.913,0.299 -1.47,-0.236C-1.031,-0.768 -0.846,-1.403 -0.92,-1.94C-0.845,-1.986 -0.768,-2.029 -0.695,-2.084C0.2,-2.757 0.511,-3.853 0,-4.534" style="fill:rgb(244,153,156);fill-rule:nonzero;"/>
        </g>
        <g transform="matrix(-0.884485,2.64067,2.64067,0.884485,1389.3,1617.08)">
            <path d="M-23.535,-16.937L12.189,-16.937" style="fill:none;fill-rule:nonzero;stroke:rgb(116,195,229);stroke-width:4.49px;stroke-linecap:butt;stroke-linejoin:miter;stroke-miterlimit:10;"/>
        </g>
        <g transform="matrix(-0.531542,-2.73366,-2.73366,0.531542,1528.11,1550.07)">
            <path d="M-17.456,60.847L60.677,60.847L40.841,18.945L-27.977,14.389L-17.456,60.847Z" style="fill:rgb(116,195,229);fill-rule:nonzero;"/>
        </g>
        <g transform="matrix(-0.531545,-2.73366,-2.73366,0.531545,1511.69,1546.43)">
            <path d="M-14.886,51.891L51.746,51.891L34.83,16.156L-23.859,12.271L-14.886,51.891Z" style="fill:white;fill-rule:nonzero;"/>
        </g>
        <g transform="matrix(2.78486,0,0,2.78486,1716.07,1204.54)">
            <path d="M0,-23.044L2.563,-6.549L-0.78,5.934L5.461,11.618L6.854,13.179L29.368,9.027L37.839,-36.223L0,-23.044Z" style="fill:rgb(251,198,184);fill-rule:nonzero;"/>
        </g>
        <g transform="matrix(2.78486,0,0,2.78486,1894.3,1206.73)">
            <path d="M0,23.29C-2.932,13.796 -3.465,-1.745 -3.59,-18.314C-11.841,-12.709 -24.6,-8.206 -24.478,0.078C-24.331,10.095 -37.955,12.709 -46.129,19.376C-35.603,18.212 -31.465,22.737 -33.612,41.604C-19.94,40.914 -9.592,34.694 0,23.29" style="fill:rgb(251,198,184);fill-rule:nonzero;"/>
        </g>
        <g transform="matrix(2.78486,0,0,2.78486,1712.66,1203.46)">
            <path d="M0,-40.078C-17.265,-42.117 -10.468,-15.005 -3.214,-15.075C-0.606,-15.703 2.471,-17.146 5.015,-19.422C9.818,-16.314 16.263,-18.565 18.086,-23.987L18.613,-25.552L21.029,-22.577C23.307,-19.772 27.546,-19.65 29.981,-22.32C30.395,-20.021 31.262,-17.612 32.656,-15.075L24.576,5.99C17.843,7.47 11.731,9.375 6.687,12.008L12.817,24.268L13.375,35.525L19.727,34.745C24.796,27.676 32.989,17.068 41.573,5.154L41.795,-2.815L58.737,9.556L65.758,8.553L69.325,-17.081L74.654,-20.414C82.989,-25.626 81.564,-38.173 72.272,-41.383L70.996,-41.824C74.354,-50.823 64.577,-59.07 56.273,-54.243L50.823,-51.075C49.189,-72.288 24.692,-75.603 18.39,-50.443L15.83,-52.118C6.521,-59.332 -1.831,-42.604 0,-40.078" style="fill:rgb(237,138,2);fill-rule:nonzero;"/>
        </g>
        <g transform="matrix(2.78486,0,0,2.78486,1818.81,1193.76)">
            <path d="M0,-13.301L0.334,-2.75C1.16,-0.759 1.932,1.071 2.526,2.377C3.621,3.741 5.742,3.587 6.628,2.08L6.65,2.043C7.861,0.991 8.865,-0.398 9.734,-2.007L9.889,-2.521C10.879,-5.801 10.916,-9.295 9.994,-12.595L7.798,-15.419C6.73,-16.791 4.76,-17.042 3.384,-15.995C3.366,-15.98 0.875,-14.24 0,-13.301" style="fill:rgb(251,198,184);fill-rule:nonzero;"/>
        </g>
        <g transform="matrix(2.60559,-0.983045,-0.983045,-2.60559,1736.58,1190.81)">
            <path d="M-0.746,1.833C2.63,5.278 5.951,5.637 9.2,1.833" style="fill:none;fill-rule:nonzero;stroke:rgb(81,82,85);stroke-width:1.5px;stroke-linecap:butt;stroke-linejoin:miter;stroke-miterlimit:10;"/>
        </g>
        <g transform="matrix(-2.43747,1.34693,1.34693,2.43747,1745.14,1260.44)">
            <path d="M-12.411,-4.329C-6.969,-0.958 -2.022,-1.466 0.493,-4.329" style="fill:none;fill-rule:nonzero;stroke:rgb(81,82,85);stroke-width:1.31px;stroke-linecap:butt;stroke-linejoin:miter;stroke-miterlimit:10;"/>
        </g>
        <g transform="matrix(2.78486,0,0,2.78486,1677.69,1532.24)">
            <path d="M0,-35.524C-2.123,-32.867 -5.649,-30.17 -9.662,-27.46L-28.913,-23.501C-29.269,-23.437 -30.381,-23.322 -30.693,-23.138C-33.854,-21.542 -36.933,-19.911 -39.846,-17.944C-39.877,-17.923 -57.281,-12.386 -57.281,-12.386L-67.743,-17.889L-69.595,-18.343L-70.866,-17.798L-79.874,-14.221L-86.631,-9.589L-87.993,-7.846C-83.183,-7.421 -74.036,-4.213 -74.036,-4.213L-53.577,-0.618L-42.861,0L-23.138,-1.526L13.004,-16.055L0,-35.524Z" style="fill:rgb(251,198,184);fill-rule:nonzero;"/>
        </g>
        <g transform="matrix(2.78486,0,0,2.78486,1544.32,1528.56)">
            <path d="M0,-24.446L1.147,-21.427L-40.607,-0.446L-44.359,0L-42.204,-3.344L0,-24.446Z" style="fill:rgb(116,195,229);fill-rule:nonzero;"/>
        </g>
        <g transform="matrix(2.78473,0.0268219,0.0268219,-2.78473,1749.02,1463.59)">
            <path d="M-0.423,-0.26L61.25,-0.26C53.865,-30.702 50.647,-60.206 51.024,-87.967C27.821,-86.005 0.522,-83.106 -7.637,-84.594C-3.314,-51.823 0.052,-20.735 -0.423,-0.26" style="fill:rgb(243,174,21);fill-rule:nonzero;"/>
        </g>
        <g transform="matrix(2.78486,0,0,2.78486,1801.43,1329.6)">
            <path d="M0,-6.147C-1.923,-4.098 -3.641,-2.623 -5.154,-0.574L0.836,0L0,-6.147Z" style="fill:rgb(243,174,21);fill-rule:nonzero;"/>
        </g>
        <g transform="matrix(2.78486,0,0,2.78486,1670.9,1373.29)">
            <path d="M0,22.862C-0.691,23.658 -0.824,23.433 -0.049,24.147L-0.281,23.853C6.37,29.161 10.473,33.814 14.167,43.53C18.811,39.539 23.398,38.487 27.253,36.62L85.878,35.951L86.472,-20.668L41.779,-16.265C39.892,-14.546 37.863,-12.153 36.429,-10.377C28.692,-0.196 15.256,12.497 0,22.862" style="fill:rgb(243,174,21);fill-rule:nonzero;"/>
        </g>
        <g transform="matrix(2.78486,0,0,2.78486,1517.18,1615.81)">
            <path d="M0,-13.225C0.513,-14.982 1.808,-16.081 4.087,-16.349C4.162,-16.303 4.237,-16.258 4.312,-16.212C10.315,-12.567 10.666,-2.23 4.931,2.015C2.208,3.124 0.718,2.185 -0.133,0.182L0,-13.225Z" style="fill:none;fill-rule:nonzero;stroke:rgb(81,82,85);stroke-width:4.49px;stroke-linecap:butt;stroke-linejoin:miter;stroke-miterlimit:10;"/>
        </g>
        <g transform="matrix(2.78486,0,0,2.78486,1486.17,1630.04)">
            <path d="M0,-24.077L0.023,-24.083L14.01,-24.036L14.093,-24.014C14.901,-23.792 15.492,-23.099 15.585,-22.266L15.57,-1.406C15.633,-0.756 15.53,-0.025 14.776,0.006L0.12,0.006C-0.374,-0.005 -0.577,-0.666 -0.625,-1.035L-1.053,-22.155C-1.053,-22.155 -0.831,-23.849 0,-24.077" style="fill:rgb(81,82,85);fill-rule:nonzero;"/>
        </g>
        <g transform="matrix(2.78486,0,0,2.78486,1844.88,1631.57)">
            <path d="M0,-50.775L-0.446,-42.825L-6.836,-41.264C-17.527,-39.299 -26.968,-36.681 -34.254,-32.942L-62.805,-21.24L-70.064,-20.495L-79.727,-22.911L-96.111,-23.06C-103.356,-20.235 -110.642,-18.19 -112.513,-15.667L-111.51,-13.884C-108.758,-12.579 -106.125,-11.066 -103.597,-9.37L-104.098,-0.546L-76.416,0L-37.82,-9.314C-29.651,-9.876 -18.907,-11.404 -6.85,-15.348C5.211,-19.294 14.783,-24.414 21.706,-28.791C22.599,-31.389 23.543,-34.032 24.539,-36.715C25.651,-39.71 26.78,-42.622 27.919,-45.453C18.613,-47.227 9.306,-49.001 0,-50.775" style="fill:rgb(251,198,184);fill-rule:nonzero;"/>
        </g>
        <g transform="matrix(2.78486,0,0,2.78486,1894.3,1511.9)">
            <path d="M0,-86.29L1.202,-83.535L4.732,-80.995C13.531,-74.665 18.482,-64.276 17.858,-53.455L17.475,-46.811L12.125,0C2.099,-4.249 -9.4,-6.163 -21.777,-6.687C-23.364,-21.107 -22.275,-35.448 -18.414,-49.708L-38.503,-66.036C-36.983,-66.634 -35.49,-67.224 -34.026,-67.81C-19.382,-73.667 -7.623,-79.019 0,-86.29" style="fill:rgb(243,174,21);fill-rule:nonzero;"/>
        </g>
        <g transform="matrix(2.78486,0,0,2.78486,1462.45,1536.49)">
            <path d="M0,-6.677L-5.966,-6.922C-7.625,-6.092 -8.422,-5.266 -8.609,-4.443C-8.94,-3.77 -8.597,-2.96 -7.883,-2.729L-7.71,-2.672C-1.769,-2.829 3.77,-2.631 8.036,-1.31C11.339,0.207 15.67,0.245 20.35,-0.221C21.536,-0.237 24.672,-2.128 24.672,-2.128L0,-6.677Z" style="fill:rgb(251,198,184);fill-rule:nonzero;"/>
        </g>
        <g transform="matrix(2.78486,0,0,2.78486,1429.43,1519.81)">
            <path d="M0,-3.175C0.302,-0.03 1.422,0 3.892,-2.525C2.673,-2.868 1.394,-3.114 0,-3.175" style="fill:rgb(254,242,245);fill-rule:nonzero;"/>
        </g>
        <path d="M1365.36,1630.05L1689.89,1630.05L1689.89,1645.57L1682.86,1645.57L1682.86,1963.41L1647.27,1963.41L1647.27,1678.68L1365.36,1678.68L1365.36,1630.05Z" style="fill:rgb(228,225,226);"/>
        <g transform="matrix(-1,0,0,1,2730.66,0)">
            <path d="M1365.36,1630.05L1689.89,1630.05L1689.89,1645.57L1682.86,1645.57L1682.86,1963.41L1647.27,1963.41L1647.27,1678.68L1365.36,1678.68L1365.36,1630.05Z" style="fill:rgb(228,225,226);"/>
        </g>
        <path d="M1652.61,1124C1541.39,998.254 1411.65,1031.8 1268,1185.01" style="fill:none;stroke:white;stroke-width:3.76px;"/>
    </g>
</svg>
