<?xml version="1.0" encoding="UTF-8" standalone="no"?>
<!DOCTYPE svg PUBLIC "-//W3C//DTD SVG 1.1//EN" "http://www.w3.org/Graphics/SVG/1.1/DTD/svg11.dtd">
<svg width="100%" height="100%" viewBox="0 0 32 32" version="1.1" xmlns="http://www.w3.org/2000/svg" xmlns:xlink="http://www.w3.org/1999/xlink" xml:space="preserve" xmlns:serif="http://www.serif.com/" style="fill-rule:evenodd;clip-rule:evenodd;stroke-linejoin:round;stroke-miterlimit:2;">
    <g transform="matrix(1.03226,0,0,1.03226,-1.03226,-1.03226)">
        <circle cx="16.5" cy="16.5" r="15.5" style="fill:rgb(243,174,21);"/>
    </g>
    <g transform="matrix(-0.71636,-1.16418,0.284608,-0.17513,17.1965,28.6829)">
        <rect x="4" y="11" width="16" height="15"/>
    </g>
    <g transform="matrix(1.2,0,0,1.2,-3.6,-3.5)">
        <path d="M23,21.337L23,25L19,24C18.396,23.802 18.049,23.475 18,23C18.656,21.458 20.111,20.555 22,20C22.558,20.222 22.905,20.654 23,21.337Z"/>
    </g>
    <path d="M4,26.5L10,23.5L13,29L17,24L19,29L24,26L20.404,31L16,28L15,32C11.798,31.608 9.394,30.85 7.967,29.645L4,26.5Z"/>
</svg>
