<?xml version="1.0" encoding="UTF-8" standalone="no"?>
<!DOCTYPE svg PUBLIC "-//W3C//DTD SVG 1.1//EN" "http://www.w3.org/Graphics/SVG/1.1/DTD/svg11.dtd">
<svg width="100%" height="100%" viewBox="0 0 267 67" version="1.1" xmlns="http://www.w3.org/2000/svg" xmlns:xlink="http://www.w3.org/1999/xlink" xml:space="preserve" xmlns:serif="http://www.serif.com/" style="fill-rule:evenodd;clip-rule:evenodd;stroke-linejoin:round;stroke-miterlimit:2;">
    <g transform="matrix(2.08333,0,0,2.08333,0,0)">
        <g transform="matrix(-0.646437,-0.0195513,0.340151,0.550055,51.0202,-82.9656)">
            <path d="M100.282,155.718C100.491,155.284 95.926,159.848 95.718,160.282L132.251,196.815C134.593,199.158 139.673,195.109 137.331,192.766L100.282,155.718Z" style="fill:rgb(243,174,21);"/>
        </g>
        <g transform="matrix(0.646437,-0.0195513,-0.340151,0.550055,3.19499,-82.9656)">
            <path d="M100.282,155.718C100.491,155.284 95.926,159.848 95.718,160.282L130.881,195.446C133.224,197.788 139.004,194.439 136.661,192.096L100.282,155.718Z" style="fill:rgb(243,174,21);"/>
        </g>
        <g transform="matrix(-1.40269,0,0,1.40269,153.016,-184.816)">
            <path d="M93,145.935L87,145.935C86.412,145.935 85.935,146.412 85.935,147L85.935,153C85.935,153.588 86.412,154.065 87,154.065L93,154.065C93.588,154.065 94.065,153.588 94.065,153L94.065,147C94.065,146.412 93.588,145.935 93,145.935ZM91.935,148.065C91.935,148.065 91.935,151.935 91.935,151.935C91.935,151.935 88.065,151.935 88.065,151.935C88.065,151.935 88.065,148.065 88.065,148.065L91.935,148.065Z" style="fill:rgb(243,174,21);"/>
        </g>
        <g transform="matrix(2.58385,0,0,0.385519,-276.892,-55.9136)">
            <path d="M152.287,207.629C152.512,207.629 152.694,208.85 152.694,210.353C152.694,211.856 152.512,213.077 152.287,213.077L119.426,213.077C119.201,213.077 119.019,211.856 119.019,210.353C119.019,208.85 119.201,207.629 119.426,207.629L152.287,207.629Z" style="fill:rgb(243,174,21);"/>
        </g>
        <g transform="matrix(0.741992,0.725284,-0.725284,0.741992,49.0153,-151.287)">
            <path d="M93.964,147L93.964,153C93.964,153.532 93.532,153.964 93,153.964L87,153.964C86.468,153.964 86.036,153.532 86.036,153L86.036,147C86.036,146.468 86.468,146.036 87,146.036L93,146.036C93.532,146.036 93.964,146.468 93.964,147ZM92.036,147.964C92.036,147.964 87.964,147.964 87.964,147.964C87.964,147.964 87.964,152.036 87.964,152.036C87.964,152.036 92.036,152.036 92.036,152.036L92.036,147.964Z" style="fill:rgb(243,174,21);"/>
        </g>
        <g transform="matrix(0.741992,0.725284,-0.725284,0.741992,163.011,-151.287)">
            <path d="M93.964,147L93.964,153C93.964,153.532 93.532,153.964 93,153.964L87,153.964C86.468,153.964 86.036,153.532 86.036,153L86.036,147C86.036,146.468 86.468,146.036 87,146.036L93,146.036C93.532,146.036 93.964,146.468 93.964,147ZM92.036,147.964C92.036,147.964 87.964,147.964 87.964,147.964C87.964,147.964 87.964,152.036 87.964,152.036C87.964,152.036 92.036,152.036 92.036,152.036L92.036,147.964Z" style="fill:rgb(243,174,21);"/>
        </g>
        <g transform="matrix(-0.342886,0,0,0.627085,63.621,-106.622)">
            <path d="M152.287,211.948C153.897,211.948 155.204,211.233 155.204,210.353C155.204,209.473 153.897,208.758 152.287,208.758L119.426,208.758C117.816,208.758 116.509,209.473 116.509,210.353C116.509,211.233 117.816,211.948 119.426,211.948L152.287,211.948Z" style="fill:rgb(243,174,21);"/>
        </g>
        <g transform="matrix(0.998816,0,0,1.00352,-220.842,-164.64)">
            <text x="269.231px" y="182.019px" style="font-family:'Inter-Bold', 'Inter';font-weight:700;font-size:19.93px;fill:rgb(243,174,21);">V<tspan x="282.897px " y="182.019px ">e</tspan>ct<tspan x="314.144px " y="182.019px ">o</tspan>o</text>
        </g>
    </g>
</svg>
